<svg width="25" height="24" viewBox="0 0 25 24" fill="none" xmlns="http://www.w3.org/2000/svg">
<path d="M15.9169 8.668C16.7832 8.64201 17.6053 8.27961 18.2088 7.65767C18.8124 7.03573 19.1499 6.20316 19.1499 5.3365C19.1499 4.46985 18.8124 3.63728 18.2088 3.01534C17.6053 2.3934 16.7832 2.031 15.9169 2.005H9.25293C8.38667 2.031 7.56459 2.3934 6.96104 3.01534C6.35749 3.63728 6.01992 4.46985 6.01992 5.3365C6.01992 6.20316 6.35749 7.03573 6.96104 7.65767C7.56459 8.27961 8.38667 8.64201 9.25293 8.668C8.37909 8.68314 7.54616 9.0409 6.93355 9.66422C6.32094 10.2875 5.97766 11.1265 5.97766 12.0005C5.97766 12.8745 6.32094 13.7135 6.93355 14.3368C7.54616 14.9601 8.37909 15.3179 9.25293 15.333C8.38336 15.3543 7.55658 15.7147 6.94909 16.3373C6.34161 16.9598 6.00157 17.7952 6.00157 18.665C6.00157 19.5348 6.34161 20.3702 6.94909 20.9927C7.55658 21.6153 8.38336 21.9757 9.25293 21.997C10.1366 21.9965 10.984 21.6451 11.6088 21.0201C12.2336 20.3952 12.5847 19.5477 12.5849 18.664V8.668H15.9169Z" fill="#5D5D5D"/>
<path d="M15.917 15.332C17.7572 15.332 19.249 13.8402 19.249 12C19.249 10.1598 17.7572 8.668 15.917 8.668C14.0767 8.668 12.585 10.1598 12.585 12C12.585 13.8402 14.0767 15.332 15.917 15.332Z" fill="#5D5D5D"/>
</svg>
