<svg width="24" height="22" viewBox="0 0 24 22" fill="none" xmlns="http://www.w3.org/2000/svg">
<path fill-rule="evenodd" clip-rule="evenodd" d="M2.96792e-07 1.838C2.96792e-07 1.35053 0.21125 0.883032 0.587278 0.53834C0.963305 0.193648 1.47331 2.45031e-06 2.00509 2.45031e-06H21.9927C22.2563 -0.000392101 22.5173 0.0468654 22.7609 0.139069C23.0045 0.231273 23.2258 0.366612 23.4123 0.537339C23.5987 0.708065 23.7466 0.910826 23.8475 1.13401C23.9483 1.3572 24.0001 1.59643 24 1.838V20.16C24.0003 20.4016 23.9486 20.6409 23.8479 20.8642C23.7472 21.0875 23.5994 21.2904 23.4131 21.4613C23.2268 21.6322 23.0055 21.7678 22.762 21.8602C22.5184 21.9526 22.2574 22.0001 21.9938 22H2.00509C1.74169 22 1.48086 21.9524 1.23752 21.86C0.994184 21.7676 0.773096 21.6321 0.586892 21.4613C0.400688 21.2905 0.253017 21.0878 0.152316 20.8647C0.0516145 20.6416 -0.000143013 20.4025 2.96792e-07 20.161V1.838ZM9.49964 8.388H12.7495V9.884C13.2185 9.024 14.4185 8.25 16.2218 8.25C19.6789 8.25 20.4982 9.963 20.4982 13.106V18.928H16.9996V13.822C16.9996 12.032 16.5305 11.022 15.3393 11.022C13.6865 11.022 12.9993 12.111 12.9993 13.822V18.928H9.49964V8.388ZM3.49964 18.791H6.99927V8.25H3.49964V18.79V18.791ZM7.5 4.812C7.5066 5.08667 7.45328 5.35979 7.34317 5.61532C7.23306 5.87084 7.06838 6.10364 6.8588 6.30003C6.64921 6.49643 6.39894 6.65247 6.12268 6.75901C5.84641 6.86554 5.54972 6.92042 5.25 6.92042C4.95028 6.92042 4.65359 6.86554 4.37732 6.75901C4.10106 6.65247 3.85079 6.49643 3.6412 6.30003C3.43162 6.10364 3.26694 5.87084 3.15683 5.61532C3.04672 5.35979 2.9934 5.08667 3 4.812C3.01295 4.27286 3.25569 3.75979 3.67624 3.38269C4.09678 3.00558 4.6617 2.79442 5.25 2.79442C5.8383 2.79442 6.40322 3.00558 6.82376 3.38269C7.24431 3.75979 7.48705 4.27286 7.5 4.812Z" fill="#5D5D5D"/>
</svg>
