<svg width="25" height="18" viewBox="0 0 25 18" fill="none" xmlns="http://www.w3.org/2000/svg">
<path d="M22.0189 15.75H19.6189V5.90625L12.4189 10.125L5.21895 5.90625V15.75H2.81895V2.25H4.25895L12.4189 7.03125L20.5789 2.25H22.0189V15.75ZM22.0189 0H2.81895C1.48695 0 0.418945 1.00125 0.418945 2.25V15.75C0.418945 16.3467 0.671802 16.919 1.12189 17.341C1.57198 17.7629 2.18243 18 2.81895 18H22.0189C22.6555 18 23.2659 17.7629 23.716 17.341C24.1661 16.919 24.4189 16.3467 24.4189 15.75V2.25C24.4189 1.65326 24.1661 1.08097 23.716 0.65901C23.2659 0.237053 22.6555 0 22.0189 0Z" fill="#5D5D5D"/>
</svg>
