<svg width="25" height="20" viewBox="0 0 25 20" fill="none" xmlns="http://www.w3.org/2000/svg">
<path d="M24.2095 2.37236C23.3269 2.77326 22.3788 3.04414 21.382 3.16658C22.4105 2.53575 23.1799 1.5429 23.5467 0.373289C22.5805 0.961624 21.523 1.37575 20.4202 1.59766C19.6786 0.78596 18.6963 0.247955 17.6258 0.0671694C16.5554 -0.113617 15.4566 0.0729309 14.5002 0.59785C13.5438 1.12277 12.7832 1.95669 12.3365 2.97014C11.8898 3.98359 11.782 5.11988 12.0298 6.20257C10.0719 6.1018 8.15658 5.58015 6.40811 4.67147C4.65963 3.76279 3.11708 2.48739 1.88057 0.928046C1.45778 1.67567 1.21467 2.54248 1.21467 3.46563C1.2142 4.29667 1.41384 5.11499 1.79589 5.84798C2.17793 6.58096 2.73056 7.20594 3.40475 7.66748C2.62287 7.64198 1.85824 7.42541 1.1745 7.03579V7.1008C1.17443 8.26638 1.56774 9.39609 2.28771 10.2982C3.00768 11.2004 4.00995 11.8194 5.12447 12.0503C4.39915 12.2515 3.6387 12.2811 2.90057 12.137C3.21502 13.1399 3.82754 14.0169 4.65239 14.6452C5.47723 15.2735 6.4731 15.6217 7.50059 15.641C5.75638 17.0446 3.60229 17.806 1.38484 17.8026C0.992047 17.8027 0.599582 17.7792 0.209473 17.7322C2.46031 19.2157 5.08044 20.003 7.75638 20C16.8148 20 21.7668 12.3092 21.7668 5.63915C21.7668 5.42245 21.7615 5.20358 21.752 4.98687C22.7152 4.27281 23.5466 3.38858 24.2074 2.37562L24.2095 2.37236Z" fill="#5D5D5D"/>
</svg>
